<svg width="374" height="510" viewBox="0 0 374 510" fill="none" xmlns="http://www.w3.org/2000/svg">
<path d="M17.912 90.712V88.36L23.312 86.416L26.936 85.096V85L23.312 83.656L17.912 81.736V79.384L29.768 84.016V86.08L17.912 90.712ZM42.9421 94.336C39.6061 94.336 37.1821 92.368 37.1821 89.632C37.1821 87.424 38.7181 85.96 40.3261 85.096V85C39.0301 84.088 37.9501 82.816 37.9501 81.016C37.9501 78.28 40.1101 76.504 43.0141 76.504C46.0861 76.504 47.9821 78.376 47.9821 81.112C47.9821 82.864 46.7581 84.328 45.6781 85.12V85.24C47.2381 86.152 48.6541 87.4 48.6541 89.704C48.6541 92.32 46.3501 94.336 42.9421 94.336ZM44.0941 84.448C45.1261 83.464 45.6781 82.432 45.6781 81.256C45.6781 79.696 44.6701 78.496 42.9661 78.496C41.5261 78.496 40.4461 79.456 40.4461 81.016C40.4461 82.864 42.1261 83.656 44.0941 84.448ZM42.9901 92.32C44.7901 92.32 46.0381 91.264 46.0381 89.608C46.0381 87.592 44.0701 86.896 41.6941 85.912C40.4941 86.752 39.6061 87.904 39.6061 89.344C39.6061 91.096 41.0701 92.32 42.9901 92.32ZM56.6056 94.336C53.0776 94.336 50.8936 91.144 50.8936 85.36C50.8936 79.552 53.0776 76.504 56.6056 76.504C60.1096 76.504 62.3176 79.576 62.3176 85.36C62.3176 91.144 60.1096 94.336 56.6056 94.336ZM56.6056 92.128C58.4056 92.128 59.6536 90.28 59.6536 85.36C59.6536 80.416 58.4056 78.688 56.6056 78.688C54.8056 78.688 53.5336 80.416 53.5336 85.36C53.5336 90.28 54.8056 92.128 56.6056 92.128ZM68.4451 87.184C65.9731 87.184 64.2931 85.12 64.2931 81.568C64.2931 78.04 65.9731 76.024 68.4451 76.024C70.9171 76.024 72.5971 78.04 72.5971 81.568C72.5971 85.12 70.9171 87.184 68.4451 87.184ZM68.4451 85.552C69.6691 85.552 70.5571 84.28 70.5571 81.568C70.5571 78.856 69.6691 77.632 68.4451 77.632C67.1971 77.632 66.3091 78.856 66.3091 81.568C66.3091 84.28 67.1971 85.552 68.4451 85.552ZM68.9731 94.336L78.6691 76.024H80.4211L70.7251 94.336H68.9731ZM80.9971 94.336C78.5251 94.336 76.8451 92.296 76.8451 88.72C76.8451 85.192 78.5251 83.152 80.9971 83.152C83.4451 83.152 85.1251 85.192 85.1251 88.72C85.1251 92.296 83.4451 94.336 80.9971 94.336ZM80.9971 92.704C82.2211 92.704 83.1091 91.432 83.1091 88.72C83.1091 85.984 82.2211 84.808 80.9971 84.808C79.7491 84.808 78.8611 85.984 78.8611 88.72C78.8611 91.432 79.7491 92.704 80.9971 92.704ZM93.6946 94V76.336H104.159V78.688H96.5026V83.584H102.959V85.96H96.5026V91.648H104.423V94H93.6946ZM108.085 94V76.336H118.573V78.688H110.893V84.064H117.421V86.416H110.893V94H108.085Z" fill="black"/>
<path d="M148.768 316.712L136.912 312.08V310.016L148.768 305.384V307.736L143.368 309.656L139.72 311V311.096L143.368 312.416L148.768 314.36V316.712ZM161.486 320.336C158.726 320.336 156.926 319.232 155.726 317.888L157.094 316.112C158.126 317.168 159.422 318.056 161.27 318.056C163.238 318.056 164.606 317 164.606 315.248C164.606 313.376 163.358 312.152 159.398 312.152V310.088C162.854 310.088 164.006 308.816 164.006 307.16C164.006 305.648 162.998 304.712 161.294 304.712C159.95 304.712 158.798 305.384 157.79 306.392L156.326 304.664C157.742 303.392 159.374 302.504 161.414 302.504C164.582 302.504 166.814 304.112 166.814 306.968C166.814 308.936 165.638 310.256 163.766 310.976V311.072C165.806 311.6 167.414 313.088 167.414 315.392C167.414 318.512 164.75 320.336 161.486 320.336ZM175.606 320.336C172.078 320.336 169.894 317.144 169.894 311.36C169.894 305.552 172.078 302.504 175.606 302.504C179.11 302.504 181.318 305.576 181.318 311.36C181.318 317.144 179.11 320.336 175.606 320.336ZM175.606 318.128C177.406 318.128 178.654 316.28 178.654 311.36C178.654 306.416 177.406 304.688 175.606 304.688C173.806 304.688 172.534 306.416 172.534 311.36C172.534 316.28 173.806 318.128 175.606 318.128ZM187.445 313.184C184.973 313.184 183.293 311.12 183.293 307.568C183.293 304.04 184.973 302.024 187.445 302.024C189.917 302.024 191.597 304.04 191.597 307.568C191.597 311.12 189.917 313.184 187.445 313.184ZM187.445 311.552C188.669 311.552 189.557 310.28 189.557 307.568C189.557 304.856 188.669 303.632 187.445 303.632C186.197 303.632 185.309 304.856 185.309 307.568C185.309 310.28 186.197 311.552 187.445 311.552ZM187.973 320.336L197.669 302.024H199.421L189.725 320.336H187.973ZM199.997 320.336C197.525 320.336 195.845 318.296 195.845 314.72C195.845 311.192 197.525 309.152 199.997 309.152C202.445 309.152 204.125 311.192 204.125 314.72C204.125 318.296 202.445 320.336 199.997 320.336ZM199.997 318.704C201.221 318.704 202.109 317.432 202.109 314.72C202.109 311.984 201.221 310.808 199.997 310.808C198.749 310.808 197.861 311.984 197.861 314.72C197.861 317.432 198.749 318.704 199.997 318.704ZM212.695 320V302.336H218.191C221.791 302.336 224.407 303.488 224.407 306.68C224.407 308.384 223.495 309.968 221.911 310.52V310.616C223.927 311.048 225.367 312.44 225.367 314.816C225.367 318.32 222.535 320 218.623 320H212.695ZM215.503 309.704H217.879C220.567 309.704 221.671 308.696 221.671 307.064C221.671 305.216 220.423 304.52 217.951 304.52H215.503V309.704ZM215.503 317.816H218.311C221.047 317.816 222.631 316.832 222.631 314.696C222.631 312.704 221.119 311.816 218.311 311.816H215.503V317.816ZM228.702 320V302.336H234.198C237.798 302.336 240.414 303.488 240.414 306.68C240.414 308.384 239.502 309.968 237.918 310.52V310.616C239.934 311.048 241.374 312.44 241.374 314.816C241.374 318.32 238.542 320 234.63 320H228.702ZM231.51 309.704H233.886C236.574 309.704 237.678 308.696 237.678 307.064C237.678 305.216 236.43 304.52 233.958 304.52H231.51V309.704ZM231.51 317.816H234.318C237.054 317.816 238.638 316.832 238.638 314.696C238.638 312.704 237.126 311.816 234.318 311.816H231.51V317.816ZM244.71 320V302.336H249.318C254.742 302.336 257.814 305.336 257.814 311.096C257.814 316.856 254.742 320 249.462 320H244.71ZM247.518 317.72H249.102C252.894 317.72 254.958 315.488 254.958 311.096C254.958 306.704 252.894 304.592 249.102 304.592H247.518V317.72Z" fill="black"/>
<path d="M265.768 367.712L253.912 363.08V361.016L265.768 356.384V358.736L260.368 360.656L256.72 362V362.096L260.368 363.416L265.768 365.36V367.712ZM274.118 371V368.72H278.006V356.936H274.814V355.184C276.494 354.872 277.646 354.44 278.678 353.816H280.766V368.72H284.222V371H274.118ZM292.606 371.336C289.078 371.336 286.894 368.144 286.894 362.36C286.894 356.552 289.078 353.504 292.606 353.504C296.11 353.504 298.318 356.576 298.318 362.36C298.318 368.144 296.11 371.336 292.606 371.336ZM292.606 369.128C294.406 369.128 295.654 367.28 295.654 362.36C295.654 357.416 294.406 355.688 292.606 355.688C290.806 355.688 289.534 357.416 289.534 362.36C289.534 367.28 290.806 369.128 292.606 369.128ZM304.445 364.184C301.973 364.184 300.293 362.12 300.293 358.568C300.293 355.04 301.973 353.024 304.445 353.024C306.917 353.024 308.597 355.04 308.597 358.568C308.597 362.12 306.917 364.184 304.445 364.184ZM304.445 362.552C305.669 362.552 306.557 361.28 306.557 358.568C306.557 355.856 305.669 354.632 304.445 354.632C303.197 354.632 302.309 355.856 302.309 358.568C302.309 361.28 303.197 362.552 304.445 362.552ZM304.973 371.336L314.669 353.024H316.421L306.725 371.336H304.973ZM316.997 371.336C314.525 371.336 312.845 369.296 312.845 365.72C312.845 362.192 314.525 360.152 316.997 360.152C319.445 360.152 321.125 362.192 321.125 365.72C321.125 369.296 319.445 371.336 316.997 371.336ZM316.997 369.704C318.221 369.704 319.109 368.432 319.109 365.72C319.109 362.984 318.221 361.808 316.997 361.808C315.749 361.808 314.861 362.984 314.861 365.72C314.861 368.432 315.749 369.704 316.997 369.704ZM329.695 371V353.336H334.303C339.727 353.336 342.799 356.336 342.799 362.096C342.799 367.856 339.727 371 334.447 371H329.695ZM332.503 368.72H334.087C337.879 368.72 339.943 366.488 339.943 362.096C339.943 357.704 337.879 355.592 334.087 355.592H332.503V368.72ZM351.54 371.336C349.092 371.336 346.86 370.376 345.252 368.744L346.884 366.8C348.132 368.072 349.884 368.888 351.588 368.888C353.7 368.888 354.9 367.904 354.9 366.392C354.9 364.784 353.7 364.28 352.068 363.584L349.62 362.504C347.916 361.808 346.044 360.464 346.044 357.896C346.044 355.112 348.468 353.024 351.828 353.024C353.916 353.024 355.86 353.888 357.18 355.256L355.74 357.008C354.636 356.048 353.388 355.448 351.828 355.448C350.028 355.448 348.876 356.312 348.876 357.704C348.876 359.216 350.292 359.792 351.732 360.392L354.156 361.4C356.244 362.288 357.756 363.584 357.756 366.176C357.756 369.008 355.404 371.336 351.54 371.336ZM358.773 371L364.605 353.336H367.845L373.677 371H370.725L367.893 361.424C367.293 359.504 366.765 357.512 366.213 355.544H366.117C365.589 357.536 365.061 359.504 364.461 361.424L361.605 371H358.773ZM362.061 365.984V363.8H370.317V365.984H362.061Z" fill="black"/>
<rect x="17" y="111" width="66" height="312" fill="#0156A8"/>
<rect x="136" y="337" width="66" height="86" fill="#ACACAC"/>
<rect x="253" y="388" width="66" height="35" fill="#171484"/>
<rect y="422" width="374" height="4" fill="black"/>
<path d="M122.259 447.912H125.307V470.136H122.259V447.912ZM117.867 448.344H120.843V469.104H117.867V448.344ZM106.179 450.36H116.283V452.904H106.179V450.36ZM106.131 465.192L105.795 462.6C108.699 462.6 113.355 462.552 116.595 462.168L116.787 464.472C113.427 465.12 108.963 465.192 106.131 465.192ZM107.571 452.04H110.427V463.176H107.571V452.04ZM112.059 452.04H114.915V463.176H112.059V452.04ZM115.803 454.032H119.523V456.624H115.803V454.032ZM115.803 458.472H119.523V461.064H115.803V458.472ZM136.465 448.56H139.273V449.592C139.273 453.864 135.913 457.488 130.081 458.352L128.833 455.784C133.945 455.112 136.465 452.208 136.465 449.592V448.56ZM137.065 448.56H139.849V449.592C139.849 452.184 142.393 455.112 147.481 455.784L146.257 458.352C140.425 457.488 137.065 453.864 137.065 449.592V448.56ZM136.489 462H139.657V470.136H136.489V462ZM128.113 459.984H148.201V462.576H128.113V459.984ZM161.389 459.312H164.581V464.184H161.389V459.312ZM171.133 447.912H174.325V464.736H171.133V447.912ZM158.317 467.208H174.805V469.752H158.317V467.208ZM158.317 463.152H161.509V467.88H158.317V463.152ZM155.917 460.272L155.533 457.728C159.589 457.728 165.013 457.68 169.669 457.08L169.861 459.36C165.133 460.152 159.925 460.272 155.917 460.272ZM166.933 460.824H171.829V463.008H166.933V460.824ZM162.685 448.68C165.925 448.68 168.205 450.288 168.205 452.64C168.205 455.016 165.925 456.6 162.685 456.6C159.421 456.6 157.141 455.016 157.141 452.64C157.141 450.288 159.421 448.68 162.685 448.68ZM162.685 451.008C161.197 451.008 160.165 451.56 160.165 452.64C160.165 453.72 161.197 454.272 162.685 454.272C164.149 454.272 165.181 453.72 165.181 452.64C165.181 451.56 164.149 451.008 162.685 451.008ZM186.059 448.56H188.867V449.592C188.867 453.864 185.507 457.488 179.675 458.352L178.427 455.784C183.539 455.112 186.059 452.208 186.059 449.592V448.56ZM186.659 448.56H189.443V449.592C189.443 452.184 191.987 455.112 197.075 455.784L195.851 458.352C190.019 457.488 186.659 453.864 186.659 449.592V448.56ZM186.083 462H189.251V470.136H186.083V462ZM177.707 459.984H197.795V462.576H177.707V459.984ZM205.39 462.408V459.888H211.966V462.408H205.39ZM219.567 468V465.984C224.415 461.64 227.247 458.304 227.247 455.568C227.247 453.792 226.311 452.688 224.607 452.688C223.287 452.688 222.255 453.528 221.343 454.536L219.399 452.616C221.031 450.864 222.639 449.928 225.063 449.928C228.399 449.928 230.655 452.064 230.655 455.376C230.655 458.616 227.967 462.072 224.727 465.24C225.615 465.144 226.791 465.024 227.631 465.024H231.471V468H219.567ZM239.795 468.336C236.171 468.336 233.771 465.192 233.771 459.048C233.771 452.928 236.171 449.928 239.795 449.928C243.395 449.928 245.795 452.928 245.795 459.048C245.795 465.192 243.395 468.336 239.795 468.336ZM239.795 465.576C241.331 465.576 242.459 464.04 242.459 459.048C242.459 454.08 241.331 452.64 239.795 452.64C238.259 452.64 237.107 454.08 237.107 459.048C237.107 464.04 238.259 465.576 239.795 465.576ZM247.831 459.288H267.943V461.808H247.831V459.288ZM256.543 460.632H259.759V465.312H256.543V460.632ZM250.159 467.208H265.735V469.752H250.159V467.208ZM250.159 463.632H253.327V468.288H250.159V463.632ZM250.399 448.608H253.543V450.888H262.207V448.608H265.375V457.752H250.399V448.608ZM253.543 453.288V455.256H262.207V453.288H253.543Z" fill="black"/>
<path d="M104.165 507.776C101.909 504.152 100.589 500.264 100.589 495.512C100.589 490.76 101.909 486.872 104.165 483.224L105.869 483.992C103.829 487.448 102.869 491.504 102.869 495.512C102.869 499.52 103.829 503.576 105.869 507.032L104.165 507.776ZM110.199 485.096H124.215V487.136H110.199V485.096ZM108.135 500.048H127.959V502.112H108.135V500.048ZM115.527 492.344H118.047V501.08H115.527V492.344ZM123.279 485.096H125.799V487.232C125.799 489.968 125.799 493.016 124.959 497.552L122.439 497.264C123.279 492.992 123.279 489.872 123.279 487.232V485.096ZM132.805 488.864H147.805V490.88H132.805V488.864ZM132.805 483.464H135.301V489.776H132.805V483.464ZM130.213 493.472H150.037V495.488H130.213V493.472ZM138.877 489.992H141.373V494.36H138.877V489.992ZM140.077 496.928C144.781 496.928 147.637 498.392 147.637 500.96C147.637 503.504 144.781 504.968 140.077 504.968C135.373 504.968 132.517 503.504 132.517 500.96C132.517 498.392 135.373 496.928 140.077 496.928ZM140.077 498.872C136.861 498.872 135.061 499.592 135.061 500.96C135.061 502.28 136.861 503.024 140.077 503.024C143.293 503.024 145.093 502.28 145.093 500.96C145.093 499.592 143.293 498.872 140.077 498.872ZM154.715 493.088H169.932V495.128H154.715V493.088ZM152.292 500.288H172.164V502.376H152.292V500.288ZM160.932 494H163.428V501.032H160.932V494ZM154.715 484.688H169.74V486.728H157.212V493.976H154.715V484.688ZM181.824 485.096H195.84V487.136H181.824V485.096ZM179.76 500.048H199.584V502.112H179.76V500.048ZM187.152 492.344H189.672V501.08H187.152V492.344ZM194.904 485.096H197.424V487.232C197.424 489.968 197.424 493.016 196.584 497.552L194.064 497.264C194.904 492.992 194.904 489.872 194.904 487.232V485.096ZM201.814 493.904H221.686V495.92H201.814V493.904ZM210.454 490.784H212.95V494.792H210.454V490.784ZM210.43 483.416H212.59V484.256C212.59 488.24 208.822 491.216 203.854 491.984L202.918 489.992C207.286 489.44 210.43 486.968 210.43 484.256V483.416ZM210.838 483.416H212.974V484.256C212.974 487.016 216.118 489.44 220.486 489.992L219.55 491.984C214.606 491.192 210.838 488.288 210.838 484.256V483.416ZM204.022 497.792H219.214V504.992H216.718V499.784H204.022V497.792ZM239.589 483.032H242.109V505.016H239.589V483.032ZM235.245 491.672H240.237V493.736H235.245V491.672ZM229.269 488.48H231.237V490.04C231.237 494.648 228.957 499.088 225.237 500.84L223.869 498.896C227.229 497.312 229.269 493.592 229.269 490.04V488.48ZM229.773 488.48H231.741V490.04C231.741 493.448 233.829 497 237.189 498.536L235.845 500.456C232.101 498.776 229.773 494.504 229.773 490.04V488.48ZM224.541 486.752H236.397V488.768H224.541V486.752ZM229.245 483.512H231.765V487.832H229.245V483.512ZM261.571 483.032H264.091V505.016H261.571V483.032ZM247.219 497.744H249.091C252.859 497.744 256.051 497.6 259.747 496.976L260.011 499.016C256.219 499.664 252.955 499.808 249.091 499.808H247.219V497.744ZM247.171 485H257.395V493.136H249.763V498.512H247.219V491.12H254.851V487.04H247.171V485ZM269.801 507.776L268.073 507.032C270.113 503.576 271.097 499.52 271.097 495.512C271.097 491.504 270.113 487.448 268.073 483.992L269.801 483.224C272.033 486.872 273.353 490.76 273.353 495.512C273.353 500.264 272.033 504.152 269.801 507.776Z" fill="#313131"/>
<path d="M9.02308 42V19.788H1.49908V15.36H21.8751V19.788H14.3511V42H9.02308ZM26.2311 42V15.36H31.6311L39.3711 29.58L42.0711 35.34H42.2511C41.9631 32.568 41.5311 29.004 41.5311 25.98V15.36H46.6071V42H41.1711L33.4671 27.744L30.7671 22.056H30.5871C30.8391 24.9 31.2711 28.248 31.2711 31.344V42H26.2311ZM82.7002 11.832H87.4882V45.276H82.7002V11.832ZM76.8322 24.648H83.7802V28.5H76.8322V24.648ZM67.2202 20.508H70.9642V22.236C70.9642 29.256 67.9402 36.348 61.8922 39.048L59.3362 35.376C64.7362 32.892 67.2202 27.24 67.2202 22.236V20.508ZM68.2642 20.508H71.9722V22.236C71.9722 27.024 74.5282 32.424 79.9282 34.836L77.4082 38.472C71.2882 35.88 68.2642 29.04 68.2642 22.236V20.508ZM60.4522 17.304H78.6322V21.084H60.4522V17.304ZM67.2202 12.624H72.0082V19.248H67.2202V12.624ZM115.601 11.832H120.389V45.276H115.601V11.832ZM94.4334 33.612H97.3854C103.289 33.612 108.005 33.396 113.297 32.496L113.765 36.348C108.365 37.32 103.469 37.5 97.3854 37.5H94.4334V33.612ZM94.3974 14.676H110.129V27.564H99.2934V35.052H94.4334V23.784H105.233V18.492H94.3974V14.676ZM132.951 32.316H137.703V40.704H132.951V32.316ZM143.895 32.316H148.611V40.704H143.895V32.316ZM127.047 16.044H154.551V19.86H127.047V16.044ZM125.787 38.076H155.955V41.928H125.787V38.076ZM140.763 21.228C147.747 21.228 152.067 23.604 152.067 27.672C152.067 31.704 147.747 34.044 140.763 34.044C133.779 34.044 129.459 31.704 129.459 27.672C129.459 23.604 133.779 21.228 140.763 21.228ZM140.763 24.9C136.551 24.9 134.355 25.8 134.355 27.672C134.355 29.508 136.551 30.372 140.763 30.372C144.939 30.372 147.171 29.508 147.171 27.672C147.171 25.8 144.939 24.9 140.763 24.9ZM138.423 12.228H143.175V18.42H138.423V12.228ZM166.392 26.628H171.144V33.036H166.392V26.628ZM176.796 26.628H181.548V33.036H176.796V26.628ZM173.952 12.192C181.548 12.192 186.012 14.172 186.012 17.844C186.012 21.516 181.548 23.532 173.952 23.532C166.32 23.532 161.892 21.516 161.892 17.844C161.892 14.172 166.32 12.192 173.952 12.192ZM173.952 15.684C169.128 15.684 166.86 16.368 166.86 17.844C166.86 19.392 169.128 20.04 173.952 20.04C178.776 20.04 181.044 19.392 181.044 17.844C181.044 16.368 178.776 15.684 173.952 15.684ZM158.868 24.864H189V28.608H158.868V24.864ZM162.324 30.912H185.364V39.48H167.076V42.432H162.36V36.168H180.648V34.476H162.324V30.912ZM162.36 41.388H186.228V44.988H162.36V41.388Z" fill="black"/>
</svg>
