<svg width="392" height="510" viewBox="0 0 392 510" fill="none" xmlns="http://www.w3.org/2000/svg">
<path d="M35.912 90.712V88.36L41.312 86.416L44.936 85.096V85L41.312 83.656L35.912 81.736V79.384L47.768 84.016V86.08L35.912 90.712ZM60.5101 94.336C57.7261 94.336 55.9741 93.208 54.7021 91.96L56.0461 90.16C57.0301 91.168 58.3261 92.056 60.1741 92.056C62.1661 92.056 63.6541 90.736 63.6541 88.528C63.6541 86.368 62.3101 85.096 60.2941 85.096C59.1901 85.096 58.5181 85.432 57.4861 86.104L56.1181 85.216L56.6461 76.816H65.6221V79.168H59.0701L58.6621 83.68C59.4061 83.296 60.1261 83.08 61.0861 83.08C64.0381 83.08 66.4621 84.76 66.4621 88.456C66.4621 92.2 63.5821 94.336 60.5101 94.336ZM74.6056 94.336C71.0776 94.336 68.8936 91.144 68.8936 85.36C68.8936 79.552 71.0776 76.504 74.6056 76.504C78.1096 76.504 80.3176 79.576 80.3176 85.36C80.3176 91.144 78.1096 94.336 74.6056 94.336ZM74.6056 92.128C76.4056 92.128 77.6536 90.28 77.6536 85.36C77.6536 80.416 76.4056 78.688 74.6056 78.688C72.8056 78.688 71.5336 80.416 71.5336 85.36C71.5336 90.28 72.8056 92.128 74.6056 92.128ZM86.4451 87.184C83.9731 87.184 82.2931 85.12 82.2931 81.568C82.2931 78.04 83.9731 76.024 86.4451 76.024C88.9171 76.024 90.5971 78.04 90.5971 81.568C90.5971 85.12 88.9171 87.184 86.4451 87.184ZM86.4451 85.552C87.6691 85.552 88.5571 84.28 88.5571 81.568C88.5571 78.856 87.6691 77.632 86.4451 77.632C85.1971 77.632 84.3091 78.856 84.3091 81.568C84.3091 84.28 85.1971 85.552 86.4451 85.552ZM86.9731 94.336L96.6691 76.024H98.4211L88.7251 94.336H86.9731ZM98.9971 94.336C96.5251 94.336 94.8451 92.296 94.8451 88.72C94.8451 85.192 96.5251 83.152 98.9971 83.152C101.445 83.152 103.125 85.192 103.125 88.72C103.125 92.296 101.445 94.336 98.9971 94.336ZM98.9971 92.704C100.221 92.704 101.109 91.432 101.109 88.72C101.109 85.984 100.221 84.808 98.9971 84.808C97.7491 84.808 96.8611 85.984 96.8611 88.72C96.8611 91.432 97.7491 92.704 98.9971 92.704ZM111.695 94V76.336H122.159V78.688H114.503V83.584H120.959V85.96H114.503V91.648H122.423V94H111.695ZM126.085 94V76.336H136.573V78.688H128.893V84.064H135.421V86.416H128.893V94H126.085Z" fill="black"/>
<path d="M166.768 316.712L154.912 312.08V310.016L166.768 305.384V307.736L161.368 309.656L157.72 311V311.096L161.368 312.416L166.768 314.36V316.712ZM175.118 320V317.72H179.006V305.936H175.814V304.184C177.494 303.872 178.646 303.44 179.678 302.816H181.766V317.72H185.222V320H175.118ZM193.606 320.336C190.078 320.336 187.894 317.144 187.894 311.36C187.894 305.552 190.078 302.504 193.606 302.504C197.11 302.504 199.318 305.576 199.318 311.36C199.318 317.144 197.11 320.336 193.606 320.336ZM193.606 318.128C195.406 318.128 196.654 316.28 196.654 311.36C196.654 306.416 195.406 304.688 193.606 304.688C191.806 304.688 190.534 306.416 190.534 311.36C190.534 316.28 191.806 318.128 193.606 318.128ZM205.445 313.184C202.973 313.184 201.293 311.12 201.293 307.568C201.293 304.04 202.973 302.024 205.445 302.024C207.917 302.024 209.597 304.04 209.597 307.568C209.597 311.12 207.917 313.184 205.445 313.184ZM205.445 311.552C206.669 311.552 207.557 310.28 207.557 307.568C207.557 304.856 206.669 303.632 205.445 303.632C204.197 303.632 203.309 304.856 203.309 307.568C203.309 310.28 204.197 311.552 205.445 311.552ZM205.973 320.336L215.669 302.024H217.421L207.725 320.336H205.973ZM217.997 320.336C215.525 320.336 213.845 318.296 213.845 314.72C213.845 311.192 215.525 309.152 217.997 309.152C220.445 309.152 222.125 311.192 222.125 314.72C222.125 318.296 220.445 320.336 217.997 320.336ZM217.997 318.704C219.221 318.704 220.109 317.432 220.109 314.72C220.109 311.984 219.221 310.808 217.997 310.808C216.749 310.808 215.861 311.984 215.861 314.72C215.861 317.432 216.749 318.704 217.997 318.704ZM230.695 320V302.336H236.191C239.791 302.336 242.407 303.488 242.407 306.68C242.407 308.384 241.495 309.968 239.911 310.52V310.616C241.927 311.048 243.367 312.44 243.367 314.816C243.367 318.32 240.535 320 236.623 320H230.695ZM233.503 309.704H235.879C238.567 309.704 239.671 308.696 239.671 307.064C239.671 305.216 238.423 304.52 235.951 304.52H233.503V309.704ZM233.503 317.816H236.311C239.047 317.816 240.631 316.832 240.631 314.696C240.631 312.704 239.119 311.816 236.311 311.816H233.503V317.816ZM246.702 320V302.336H252.198C255.798 302.336 258.414 303.488 258.414 306.68C258.414 308.384 257.502 309.968 255.918 310.52V310.616C257.934 311.048 259.374 312.44 259.374 314.816C259.374 318.32 256.542 320 252.63 320H246.702ZM249.51 309.704H251.886C254.574 309.704 255.678 308.696 255.678 307.064C255.678 305.216 254.43 304.52 251.958 304.52H249.51V309.704ZM249.51 317.816H252.318C255.054 317.816 256.638 316.832 256.638 314.696C256.638 312.704 255.126 311.816 252.318 311.816H249.51V317.816ZM262.71 320V302.336H267.318C272.742 302.336 275.814 305.336 275.814 311.096C275.814 316.856 272.742 320 267.462 320H262.71ZM265.518 317.72H267.102C270.894 317.72 272.958 315.488 272.958 311.096C272.958 306.704 270.894 304.592 267.102 304.592H265.518V317.72Z" fill="black"/>
<path d="M283.768 367.712L271.912 363.08V361.016L283.768 356.384V358.736L278.368 360.656L274.72 362V362.096L278.368 363.416L283.768 365.36V367.712ZM296.51 371.336C293.726 371.336 291.974 370.208 290.702 368.96L292.046 367.16C293.03 368.168 294.326 369.056 296.174 369.056C298.166 369.056 299.654 367.736 299.654 365.528C299.654 363.368 298.31 362.096 296.294 362.096C295.19 362.096 294.518 362.432 293.486 363.104L292.118 362.216L292.646 353.816H301.622V356.168H295.07L294.662 360.68C295.406 360.296 296.126 360.08 297.086 360.08C300.038 360.08 302.462 361.76 302.462 365.456C302.462 369.2 299.582 371.336 296.51 371.336ZM308.758 364.184C306.286 364.184 304.606 362.12 304.606 358.568C304.606 355.04 306.286 353.024 308.758 353.024C311.23 353.024 312.91 355.04 312.91 358.568C312.91 362.12 311.23 364.184 308.758 364.184ZM308.758 362.552C309.982 362.552 310.87 361.28 310.87 358.568C310.87 355.856 309.982 354.632 308.758 354.632C307.51 354.632 306.622 355.856 306.622 358.568C306.622 361.28 307.51 362.552 308.758 362.552ZM309.286 371.336L318.982 353.024H320.734L311.038 371.336H309.286ZM321.31 371.336C318.838 371.336 317.158 369.296 317.158 365.72C317.158 362.192 318.838 360.152 321.31 360.152C323.758 360.152 325.438 362.192 325.438 365.72C325.438 369.296 323.758 371.336 321.31 371.336ZM321.31 369.704C322.534 369.704 323.422 368.432 323.422 365.72C323.422 362.984 322.534 361.808 321.31 361.808C320.062 361.808 319.174 362.984 319.174 365.72C319.174 368.432 320.062 369.704 321.31 369.704ZM334.007 371V353.336H338.615C344.039 353.336 347.111 356.336 347.111 362.096C347.111 367.856 344.039 371 338.759 371H334.007ZM336.815 368.72H338.399C342.191 368.72 344.255 366.488 344.255 362.096C344.255 357.704 342.191 355.592 338.399 355.592H336.815V368.72ZM355.852 371.336C353.404 371.336 351.172 370.376 349.564 368.744L351.196 366.8C352.444 368.072 354.196 368.888 355.9 368.888C358.012 368.888 359.212 367.904 359.212 366.392C359.212 364.784 358.012 364.28 356.38 363.584L353.932 362.504C352.228 361.808 350.356 360.464 350.356 357.896C350.356 355.112 352.78 353.024 356.14 353.024C358.228 353.024 360.172 353.888 361.492 355.256L360.052 357.008C358.948 356.048 357.7 355.448 356.14 355.448C354.34 355.448 353.188 356.312 353.188 357.704C353.188 359.216 354.604 359.792 356.044 360.392L358.468 361.4C360.556 362.288 362.068 363.584 362.068 366.176C362.068 369.008 359.716 371.336 355.852 371.336ZM363.086 371L368.918 353.336H372.158L377.99 371H375.038L372.206 361.424C371.606 359.504 371.078 357.512 370.526 355.544H370.43C369.902 357.536 369.374 359.504 368.774 361.424L365.918 371H363.086ZM366.374 365.984V363.8H374.63V365.984H366.374Z" fill="black"/>
<rect x="35" y="111" width="66" height="312" fill="#0156A8"/>
<rect x="154" y="337" width="66" height="86" fill="#ACACAC"/>
<rect x="271" y="388" width="66" height="35" fill="#171484"/>
<rect x="18" y="422" width="374" height="4" fill="black"/>
<path d="M152.025 447.912H155.193V470.136H152.025V447.912ZM154.473 456.576H158.409V459.24H154.473V456.576ZM137.673 451.2H150.609V453.744H137.673V451.2ZM144.177 454.992C147.417 454.992 149.817 457.2 149.817 460.296C149.817 463.392 147.417 465.6 144.177 465.6C140.937 465.6 138.537 463.392 138.537 460.296C138.537 457.2 140.937 454.992 144.177 454.992ZM144.177 457.584C142.665 457.584 141.585 458.592 141.585 460.296C141.585 462 142.665 463.008 144.177 463.008C145.689 463.008 146.769 462 146.769 460.296C146.769 458.592 145.689 457.584 144.177 457.584ZM142.569 448.272H145.761V452.16H142.569V448.272ZM164.839 452.256H167.431V453.12C167.431 457.176 165.463 460.8 161.239 462.12L159.703 459.624C163.303 458.496 164.839 455.808 164.839 453.12V452.256ZM165.415 452.256H168.031V453.12C168.031 455.616 169.591 458.184 173.191 459.264L171.655 461.76C167.455 460.512 165.415 457.008 165.415 453.12V452.256ZM160.471 450.528H172.399V453.024H160.471V450.528ZM164.839 448.08H168.031V451.464H164.839V448.08ZM171.703 454.368H176.863V456.984H171.703V454.368ZM175.255 447.936H178.447V464.376H175.255V447.936ZM163.783 467.208H178.951V469.752H163.783V467.208ZM163.783 463.008H166.975V468.888H163.783V463.008ZM190.301 448.56H193.109V449.592C193.109 453.864 189.749 457.488 183.917 458.352L182.669 455.784C187.781 455.112 190.301 452.208 190.301 449.592V448.56ZM190.901 448.56H193.685V449.592C193.685 452.184 196.229 455.112 201.317 455.784L200.093 458.352C194.261 457.488 190.901 453.864 190.901 449.592V448.56ZM190.325 462H193.493V470.136H190.325V462ZM181.949 459.984H202.037V462.576H181.949V459.984ZM209.632 462.408V459.888H216.208V462.408H209.632ZM224.745 468V465.144H228.585V453.912H225.345V451.728C227.145 451.392 228.345 450.936 229.497 450.24H232.113V465.144H235.449V468H224.745ZM244.037 468.336C240.413 468.336 238.013 465.192 238.013 459.048C238.013 452.928 240.413 449.928 244.037 449.928C247.637 449.928 250.037 452.928 250.037 459.048C250.037 465.192 247.637 468.336 244.037 468.336ZM244.037 465.576C245.573 465.576 246.701 464.04 246.701 459.048C246.701 454.08 245.573 452.64 244.037 452.64C242.501 452.64 241.349 454.08 241.349 459.048C241.349 464.04 242.501 465.576 244.037 465.576ZM252.073 459.288H272.185V461.808H252.073V459.288ZM260.785 460.632H264.001V465.312H260.785V460.632ZM254.401 467.208H269.977V469.752H254.401V467.208ZM254.401 463.632H257.569V468.288H254.401V463.632ZM254.641 448.608H257.785V450.888H266.449V448.608H269.617V457.752H254.641V448.608ZM257.785 453.288V455.256H266.449V453.288H257.785Z" fill="black"/>
<path d="M122.165 507.776C119.909 504.152 118.589 500.264 118.589 495.512C118.589 490.76 119.909 486.872 122.165 483.224L123.869 483.992C121.829 487.448 120.869 491.504 120.869 495.512C120.869 499.52 121.829 503.576 123.869 507.032L122.165 507.776ZM141.807 483.032H144.327V505.016H141.807V483.032ZM137.487 490.88H142.479V492.92H137.487V490.88ZM131.463 486.32H133.479V489.032C133.479 494.024 131.103 498.896 127.359 500.792L125.871 498.8C129.255 497.168 131.463 492.992 131.463 489.032V486.32ZM132.015 486.32H134.007V489.032C134.007 492.776 136.191 496.784 139.575 498.368L138.111 500.336C134.343 498.512 132.015 493.832 132.015 489.032V486.32ZM126.711 485.24H138.759V487.28H126.711V485.24ZM150.805 488.864H165.805V490.88H150.805V488.864ZM150.805 483.464H153.301V489.776H150.805V483.464ZM148.213 493.472H168.037V495.488H148.213V493.472ZM156.877 489.992H159.373V494.36H156.877V489.992ZM158.077 496.928C162.781 496.928 165.637 498.392 165.637 500.96C165.637 503.504 162.781 504.968 158.077 504.968C153.373 504.968 150.517 503.504 150.517 500.96C150.517 498.392 153.373 496.928 158.077 496.928ZM158.077 498.872C154.861 498.872 153.061 499.592 153.061 500.96C153.061 502.28 154.861 503.024 158.077 503.024C161.293 503.024 163.093 502.28 163.093 500.96C163.093 499.592 161.293 498.872 158.077 498.872ZM172.715 493.088H187.932V495.128H172.715V493.088ZM170.292 500.288H190.164V502.376H170.292V500.288ZM178.932 494H181.428V501.032H178.932V494ZM172.715 484.688H187.74V486.728H175.212V493.976H172.715V484.688ZM199.824 485.096H213.84V487.136H199.824V485.096ZM197.76 500.048H217.584V502.112H197.76V500.048ZM205.152 492.344H207.672V501.08H205.152V492.344ZM212.904 485.096H215.424V487.232C215.424 489.968 215.424 493.016 214.584 497.552L212.064 497.264C212.904 492.992 212.904 489.872 212.904 487.232V485.096ZM219.814 493.904H239.686V495.92H219.814V493.904ZM228.454 490.784H230.95V494.792H228.454V490.784ZM228.43 483.416H230.59V484.256C230.59 488.24 226.822 491.216 221.854 491.984L220.918 489.992C225.286 489.44 228.43 486.968 228.43 484.256V483.416ZM228.838 483.416H230.974V484.256C230.974 487.016 234.118 489.44 238.486 489.992L237.55 491.984C232.606 491.192 228.838 488.288 228.838 484.256V483.416ZM222.022 497.792H237.214V504.992H234.718V499.784H222.022V497.792ZM257.589 483.032H260.109V505.016H257.589V483.032ZM253.245 491.672H258.237V493.736H253.245V491.672ZM247.269 488.48H249.237V490.04C249.237 494.648 246.957 499.088 243.237 500.84L241.869 498.896C245.229 497.312 247.269 493.592 247.269 490.04V488.48ZM247.773 488.48H249.741V490.04C249.741 493.448 251.829 497 255.189 498.536L253.845 500.456C250.101 498.776 247.773 494.504 247.773 490.04V488.48ZM242.541 486.752H254.397V488.768H242.541V486.752ZM247.245 483.512H249.765V487.832H247.245V483.512ZM279.571 483.032H282.091V505.016H279.571V483.032ZM265.219 497.744H267.091C270.859 497.744 274.051 497.6 277.747 496.976L278.011 499.016C274.219 499.664 270.955 499.808 267.091 499.808H265.219V497.744ZM265.171 485H275.395V493.136H267.763V498.512H265.219V491.12H272.851V487.04H265.171V485ZM287.801 507.776L286.073 507.032C288.113 503.576 289.097 499.52 289.097 495.512C289.097 491.504 288.113 487.448 286.073 483.992L287.801 483.224C290.033 486.872 291.353 490.76 291.353 495.512C291.353 500.264 290.033 504.152 287.801 507.776Z" fill="#313131"/>
<path d="M27.0231 42V19.788H19.4991V15.36H39.8751V19.788H32.3511V42H27.0231ZM44.2311 42V15.36H49.6311L57.3711 29.58L60.0711 35.34H60.2511C59.9631 32.568 59.5311 29.004 59.5311 25.98V15.36H64.6071V42H59.1711L51.4671 27.744L48.7671 22.056H48.5871C48.8391 24.9 49.2711 28.248 49.2711 31.344V42H44.2311ZM100.7 11.832H105.488V45.276H100.7V11.832ZM94.8322 24.648H101.78V28.5H94.8322V24.648ZM85.2202 20.508H88.9642V22.236C88.9642 29.256 85.9402 36.348 79.8922 39.048L77.3362 35.376C82.7362 32.892 85.2202 27.24 85.2202 22.236V20.508ZM86.2642 20.508H89.9722V22.236C89.9722 27.024 92.5282 32.424 97.9282 34.836L95.4082 38.472C89.2882 35.88 86.2642 29.04 86.2642 22.236V20.508ZM78.4522 17.304H96.6322V21.084H78.4522V17.304ZM85.2202 12.624H90.0082V19.248H85.2202V12.624ZM133.601 11.832H138.389V45.276H133.601V11.832ZM112.433 33.612H115.385C121.289 33.612 126.005 33.396 131.297 32.496L131.765 36.348C126.365 37.32 121.469 37.5 115.385 37.5H112.433V33.612ZM112.397 14.676H128.129V27.564H117.293V35.052H112.433V23.784H123.233V18.492H112.397V14.676ZM150.951 32.316H155.703V40.704H150.951V32.316ZM161.895 32.316H166.611V40.704H161.895V32.316ZM145.047 16.044H172.551V19.86H145.047V16.044ZM143.787 38.076H173.955V41.928H143.787V38.076ZM158.763 21.228C165.747 21.228 170.067 23.604 170.067 27.672C170.067 31.704 165.747 34.044 158.763 34.044C151.779 34.044 147.459 31.704 147.459 27.672C147.459 23.604 151.779 21.228 158.763 21.228ZM158.763 24.9C154.551 24.9 152.355 25.8 152.355 27.672C152.355 29.508 154.551 30.372 158.763 30.372C162.939 30.372 165.171 29.508 165.171 27.672C165.171 25.8 162.939 24.9 158.763 24.9ZM156.423 12.228H161.175V18.42H156.423V12.228ZM184.392 26.628H189.144V33.036H184.392V26.628ZM194.796 26.628H199.548V33.036H194.796V26.628ZM191.952 12.192C199.548 12.192 204.012 14.172 204.012 17.844C204.012 21.516 199.548 23.532 191.952 23.532C184.32 23.532 179.892 21.516 179.892 17.844C179.892 14.172 184.32 12.192 191.952 12.192ZM191.952 15.684C187.128 15.684 184.86 16.368 184.86 17.844C184.86 19.392 187.128 20.04 191.952 20.04C196.776 20.04 199.044 19.392 199.044 17.844C199.044 16.368 196.776 15.684 191.952 15.684ZM176.868 24.864H207V28.608H176.868V24.864ZM180.324 30.912H203.364V39.48H185.076V42.432H180.36V36.168H198.648V34.476H180.324V30.912ZM180.36 41.388H204.228V44.988H180.36V41.388Z" fill="black"/>
</svg>
