<svg width="374" height="510" viewBox="0 0 374 510" fill="none" xmlns="http://www.w3.org/2000/svg">
<path d="M17.912 90.712V88.36L23.312 86.416L26.936 85.096V85L23.312 83.656L17.912 81.736V79.384L29.768 84.016V86.08L17.912 90.712ZM44.1901 94V82.984C44.1901 82.024 44.2621 80.464 44.3341 79.504H44.2141C43.7821 80.368 43.3021 81.184 42.7981 82.096L39.3421 87.304H49.0381V89.464H36.5581V87.592L43.5661 76.816H46.7821V94H44.1901ZM56.6056 94.336C53.0776 94.336 50.8936 91.144 50.8936 85.36C50.8936 79.552 53.0776 76.504 56.6056 76.504C60.1096 76.504 62.3176 79.576 62.3176 85.36C62.3176 91.144 60.1096 94.336 56.6056 94.336ZM56.6056 92.128C58.4056 92.128 59.6536 90.28 59.6536 85.36C59.6536 80.416 58.4056 78.688 56.6056 78.688C54.8056 78.688 53.5336 80.416 53.5336 85.36C53.5336 90.28 54.8056 92.128 56.6056 92.128ZM68.4451 87.184C65.9731 87.184 64.2931 85.12 64.2931 81.568C64.2931 78.04 65.9731 76.024 68.4451 76.024C70.9171 76.024 72.5971 78.04 72.5971 81.568C72.5971 85.12 70.9171 87.184 68.4451 87.184ZM68.4451 85.552C69.6691 85.552 70.5571 84.28 70.5571 81.568C70.5571 78.856 69.6691 77.632 68.4451 77.632C67.1971 77.632 66.3091 78.856 66.3091 81.568C66.3091 84.28 67.1971 85.552 68.4451 85.552ZM68.9731 94.336L78.6691 76.024H80.4211L70.7251 94.336H68.9731ZM80.9971 94.336C78.5251 94.336 76.8451 92.296 76.8451 88.72C76.8451 85.192 78.5251 83.152 80.9971 83.152C83.4451 83.152 85.1251 85.192 85.1251 88.72C85.1251 92.296 83.4451 94.336 80.9971 94.336ZM80.9971 92.704C82.2211 92.704 83.1091 91.432 83.1091 88.72C83.1091 85.984 82.2211 84.808 80.9971 84.808C79.7491 84.808 78.8611 85.984 78.8611 88.72C78.8611 91.432 79.7491 92.704 80.9971 92.704ZM93.6946 94V76.336H104.159V78.688H96.5026V83.584H102.959V85.96H96.5026V91.648H104.423V94H93.6946ZM108.085 94V76.336H118.573V78.688H110.893V84.064H117.421V86.416H110.893V94H108.085Z" fill="black"/>
<path d="M148.768 316.712L136.912 312.08V310.016L148.768 305.384V307.736L143.368 309.656L139.72 311V311.096L143.368 312.416L148.768 314.36V316.712ZM157.118 320V317.72H161.006V305.936H157.814V304.184C159.494 303.872 160.646 303.44 161.678 302.816H163.766V317.72H167.222V320H157.118ZM175.606 320.336C172.078 320.336 169.894 317.144 169.894 311.36C169.894 305.552 172.078 302.504 175.606 302.504C179.11 302.504 181.318 305.576 181.318 311.36C181.318 317.144 179.11 320.336 175.606 320.336ZM175.606 318.128C177.406 318.128 178.654 316.28 178.654 311.36C178.654 306.416 177.406 304.688 175.606 304.688C173.806 304.688 172.534 306.416 172.534 311.36C172.534 316.28 173.806 318.128 175.606 318.128ZM187.445 313.184C184.973 313.184 183.293 311.12 183.293 307.568C183.293 304.04 184.973 302.024 187.445 302.024C189.917 302.024 191.597 304.04 191.597 307.568C191.597 311.12 189.917 313.184 187.445 313.184ZM187.445 311.552C188.669 311.552 189.557 310.28 189.557 307.568C189.557 304.856 188.669 303.632 187.445 303.632C186.197 303.632 185.309 304.856 185.309 307.568C185.309 310.28 186.197 311.552 187.445 311.552ZM187.973 320.336L197.669 302.024H199.421L189.725 320.336H187.973ZM199.997 320.336C197.525 320.336 195.845 318.296 195.845 314.72C195.845 311.192 197.525 309.152 199.997 309.152C202.445 309.152 204.125 311.192 204.125 314.72C204.125 318.296 202.445 320.336 199.997 320.336ZM199.997 318.704C201.221 318.704 202.109 317.432 202.109 314.72C202.109 311.984 201.221 310.808 199.997 310.808C198.749 310.808 197.861 311.984 197.861 314.72C197.861 317.432 198.749 318.704 199.997 318.704ZM212.695 320V302.336H218.191C221.791 302.336 224.407 303.488 224.407 306.68C224.407 308.384 223.495 309.968 221.911 310.52V310.616C223.927 311.048 225.367 312.44 225.367 314.816C225.367 318.32 222.535 320 218.623 320H212.695ZM215.503 309.704H217.879C220.567 309.704 221.671 308.696 221.671 307.064C221.671 305.216 220.423 304.52 217.951 304.52H215.503V309.704ZM215.503 317.816H218.311C221.047 317.816 222.631 316.832 222.631 314.696C222.631 312.704 221.119 311.816 218.311 311.816H215.503V317.816ZM228.702 320V302.336H234.198C237.798 302.336 240.414 303.488 240.414 306.68C240.414 308.384 239.502 309.968 237.918 310.52V310.616C239.934 311.048 241.374 312.44 241.374 314.816C241.374 318.32 238.542 320 234.63 320H228.702ZM231.51 309.704H233.886C236.574 309.704 237.678 308.696 237.678 307.064C237.678 305.216 236.43 304.52 233.958 304.52H231.51V309.704ZM231.51 317.816H234.318C237.054 317.816 238.638 316.832 238.638 314.696C238.638 312.704 237.126 311.816 234.318 311.816H231.51V317.816ZM244.71 320V302.336H249.318C254.742 302.336 257.814 305.336 257.814 311.096C257.814 316.856 254.742 320 249.462 320H244.71ZM247.518 317.72H249.102C252.894 317.72 254.958 315.488 254.958 311.096C254.958 306.704 252.894 304.592 249.102 304.592H247.518V317.72Z" fill="black"/>
<path d="M265.768 367.712L253.912 363.08V361.016L265.768 356.384V358.736L260.368 360.656L256.72 362V362.096L260.368 363.416L265.768 365.36V367.712ZM278.51 371.336C275.726 371.336 273.974 370.208 272.702 368.96L274.046 367.16C275.03 368.168 276.326 369.056 278.174 369.056C280.166 369.056 281.654 367.736 281.654 365.528C281.654 363.368 280.31 362.096 278.294 362.096C277.19 362.096 276.518 362.432 275.486 363.104L274.118 362.216L274.646 353.816H283.622V356.168H277.07L276.662 360.68C277.406 360.296 278.126 360.08 279.086 360.08C282.038 360.08 284.462 361.76 284.462 365.456C284.462 369.2 281.582 371.336 278.51 371.336ZM290.758 364.184C288.286 364.184 286.606 362.12 286.606 358.568C286.606 355.04 288.286 353.024 290.758 353.024C293.23 353.024 294.91 355.04 294.91 358.568C294.91 362.12 293.23 364.184 290.758 364.184ZM290.758 362.552C291.982 362.552 292.87 361.28 292.87 358.568C292.87 355.856 291.982 354.632 290.758 354.632C289.51 354.632 288.622 355.856 288.622 358.568C288.622 361.28 289.51 362.552 290.758 362.552ZM291.286 371.336L300.982 353.024H302.734L293.038 371.336H291.286ZM303.31 371.336C300.838 371.336 299.158 369.296 299.158 365.72C299.158 362.192 300.838 360.152 303.31 360.152C305.758 360.152 307.438 362.192 307.438 365.72C307.438 369.296 305.758 371.336 303.31 371.336ZM303.31 369.704C304.534 369.704 305.422 368.432 305.422 365.72C305.422 362.984 304.534 361.808 303.31 361.808C302.062 361.808 301.174 362.984 301.174 365.72C301.174 368.432 302.062 369.704 303.31 369.704ZM316.007 371V353.336H320.615C326.039 353.336 329.111 356.336 329.111 362.096C329.111 367.856 326.039 371 320.759 371H316.007ZM318.815 368.72H320.399C324.191 368.72 326.255 366.488 326.255 362.096C326.255 357.704 324.191 355.592 320.399 355.592H318.815V368.72ZM337.852 371.336C335.404 371.336 333.172 370.376 331.564 368.744L333.196 366.8C334.444 368.072 336.196 368.888 337.9 368.888C340.012 368.888 341.212 367.904 341.212 366.392C341.212 364.784 340.012 364.28 338.38 363.584L335.932 362.504C334.228 361.808 332.356 360.464 332.356 357.896C332.356 355.112 334.78 353.024 338.14 353.024C340.228 353.024 342.172 353.888 343.492 355.256L342.052 357.008C340.948 356.048 339.7 355.448 338.14 355.448C336.34 355.448 335.188 356.312 335.188 357.704C335.188 359.216 336.604 359.792 338.044 360.392L340.468 361.4C342.556 362.288 344.068 363.584 344.068 366.176C344.068 369.008 341.716 371.336 337.852 371.336ZM345.086 371L350.918 353.336H354.158L359.99 371H357.038L354.206 361.424C353.606 359.504 353.078 357.512 352.526 355.544H352.43C351.902 357.536 351.374 359.504 350.774 361.424L347.918 371H345.086ZM348.374 365.984V363.8H356.63V365.984H348.374Z" fill="black"/>
<rect x="17" y="111" width="66" height="312" fill="#0156A8"/>
<rect x="136" y="337" width="66" height="86" fill="#ACACAC"/>
<rect x="253" y="388" width="66" height="35" fill="#171484"/>
<rect y="422" width="374" height="4" fill="black"/>
<path d="M93.548 447.912H96.716V470.136H93.548V447.912ZM95.996 456.576H99.932V459.24H95.996V456.576ZM79.196 451.2H92.132V453.744H79.196V451.2ZM85.7 454.992C88.94 454.992 91.34 457.2 91.34 460.296C91.34 463.392 88.94 465.6 85.7 465.6C82.46 465.6 80.06 463.392 80.06 460.296C80.06 457.2 82.46 454.992 85.7 454.992ZM85.7 457.584C84.188 457.584 83.108 458.592 83.108 460.296C83.108 462 84.188 463.008 85.7 463.008C87.212 463.008 88.292 462 88.292 460.296C88.292 458.592 87.212 457.584 85.7 457.584ZM84.092 448.272H87.284V452.16H84.092V448.272ZM100.722 472.368L106.722 448.656H109.05L103.074 472.368H100.722ZM126.899 447.912H129.947V470.136H126.899V447.912ZM122.507 448.344H125.483V469.104H122.507V448.344ZM110.819 450.36H120.923V452.904H110.819V450.36ZM110.771 465.192L110.435 462.6C113.339 462.6 117.995 462.552 121.235 462.168L121.427 464.472C118.067 465.12 113.603 465.192 110.771 465.192ZM112.211 452.04H115.067V463.176H112.211V452.04ZM116.699 452.04H119.555V463.176H116.699V452.04ZM120.443 454.032H124.163V456.624H120.443V454.032ZM120.443 458.472H124.163V461.064H120.443V458.472ZM141.106 448.56H143.914V449.592C143.914 453.864 140.554 457.488 134.722 458.352L133.474 455.784C138.586 455.112 141.106 452.208 141.106 449.592V448.56ZM141.706 448.56H144.49V449.592C144.49 452.184 147.034 455.112 152.122 455.784L150.898 458.352C145.066 457.488 141.706 453.864 141.706 449.592V448.56ZM141.13 462H144.298V470.136H141.13V462ZM132.754 459.984H152.842V462.576H132.754V459.984ZM175.701 447.888H178.893V470.184H175.701V447.888ZM171.789 456.432H176.421V459H171.789V456.432ZM165.381 453.672H167.877V454.824C167.877 459.504 165.861 464.232 161.829 466.032L160.125 463.584C163.725 461.928 165.381 458.16 165.381 454.824V453.672ZM166.077 453.672H168.549V454.824C168.549 458.016 170.253 461.616 173.853 463.224L172.173 465.648C168.093 463.92 166.077 459.36 166.077 454.824V453.672ZM160.869 451.536H172.989V454.056H160.869V451.536ZM165.381 448.416H168.573V452.832H165.381V448.416ZM197.635 447.888H200.827V470.184H197.635V447.888ZM183.523 462.408H185.491C189.427 462.408 192.571 462.264 196.099 461.664L196.411 464.232C192.811 464.88 189.547 465 185.491 465H183.523V462.408ZM183.499 449.784H193.987V458.376H186.763V463.368H183.523V455.856H190.723V452.328H183.499V449.784ZM212.777 448.56H215.585V449.592C215.585 453.864 212.225 457.488 206.393 458.352L205.145 455.784C210.257 455.112 212.777 452.208 212.777 449.592V448.56ZM213.377 448.56H216.161V449.592C216.161 452.184 218.705 455.112 223.793 455.784L222.569 458.352C216.737 457.488 213.377 453.864 213.377 449.592V448.56ZM212.801 462H215.969V470.136H212.801V462ZM204.425 459.984H224.513V462.576H204.425V459.984ZM232.109 462.408V459.888H238.685V462.408H232.109ZM247.221 468V465.144H251.061V453.912H247.821V451.728C249.621 451.392 250.821 450.936 251.973 450.24H254.589V465.144H257.925V468H247.221ZM266.514 468.336C262.89 468.336 260.49 465.192 260.49 459.048C260.49 452.928 262.89 449.928 266.514 449.928C270.114 449.928 272.514 452.928 272.514 459.048C272.514 465.192 270.114 468.336 266.514 468.336ZM266.514 465.576C268.05 465.576 269.178 464.04 269.178 459.048C269.178 454.08 268.05 452.64 266.514 452.64C264.978 452.64 263.826 454.08 263.826 459.048C263.826 464.04 264.978 465.576 266.514 465.576ZM274.55 459.288H294.662V461.808H274.55V459.288ZM283.262 460.632H286.478V465.312H283.262V460.632ZM276.878 467.208H292.454V469.752H276.878V467.208ZM276.878 463.632H280.046V468.288H276.878V463.632ZM277.118 448.608H280.262V450.888H288.926V448.608H292.094V457.752H277.118V448.608ZM280.262 453.288V455.256H288.926V453.288H280.262Z" fill="black"/>
<path d="M104.165 507.776C101.909 504.152 100.589 500.264 100.589 495.512C100.589 490.76 101.909 486.872 104.165 483.224L105.869 483.992C103.829 487.448 102.869 491.504 102.869 495.512C102.869 499.52 103.829 503.576 105.869 507.032L104.165 507.776ZM123.807 483.032H126.327V505.016H123.807V483.032ZM119.487 490.88H124.479V492.92H119.487V490.88ZM113.463 486.32H115.479V489.032C115.479 494.024 113.103 498.896 109.359 500.792L107.871 498.8C111.255 497.168 113.463 492.992 113.463 489.032V486.32ZM114.015 486.32H116.007V489.032C116.007 492.776 118.191 496.784 121.575 498.368L120.111 500.336C116.343 498.512 114.015 493.832 114.015 489.032V486.32ZM108.711 485.24H120.759V487.28H108.711V485.24ZM132.805 488.864H147.805V490.88H132.805V488.864ZM132.805 483.464H135.301V489.776H132.805V483.464ZM130.213 493.472H150.037V495.488H130.213V493.472ZM138.877 489.992H141.373V494.36H138.877V489.992ZM140.077 496.928C144.781 496.928 147.637 498.392 147.637 500.96C147.637 503.504 144.781 504.968 140.077 504.968C135.373 504.968 132.517 503.504 132.517 500.96C132.517 498.392 135.373 496.928 140.077 496.928ZM140.077 498.872C136.861 498.872 135.061 499.592 135.061 500.96C135.061 502.28 136.861 503.024 140.077 503.024C143.293 503.024 145.093 502.28 145.093 500.96C145.093 499.592 143.293 498.872 140.077 498.872ZM154.715 493.088H169.932V495.128H154.715V493.088ZM152.292 500.288H172.164V502.376H152.292V500.288ZM160.932 494H163.428V501.032H160.932V494ZM154.715 484.688H169.74V486.728H157.212V493.976H154.715V484.688ZM181.824 485.096H195.84V487.136H181.824V485.096ZM179.76 500.048H199.584V502.112H179.76V500.048ZM187.152 492.344H189.672V501.08H187.152V492.344ZM194.904 485.096H197.424V487.232C197.424 489.968 197.424 493.016 196.584 497.552L194.064 497.264C194.904 492.992 194.904 489.872 194.904 487.232V485.096ZM201.814 493.904H221.686V495.92H201.814V493.904ZM210.454 490.784H212.95V494.792H210.454V490.784ZM210.43 483.416H212.59V484.256C212.59 488.24 208.822 491.216 203.854 491.984L202.918 489.992C207.286 489.44 210.43 486.968 210.43 484.256V483.416ZM210.838 483.416H212.974V484.256C212.974 487.016 216.118 489.44 220.486 489.992L219.55 491.984C214.606 491.192 210.838 488.288 210.838 484.256V483.416ZM204.022 497.792H219.214V504.992H216.718V499.784H204.022V497.792ZM239.589 483.032H242.109V505.016H239.589V483.032ZM235.245 491.672H240.237V493.736H235.245V491.672ZM229.269 488.48H231.237V490.04C231.237 494.648 228.957 499.088 225.237 500.84L223.869 498.896C227.229 497.312 229.269 493.592 229.269 490.04V488.48ZM229.773 488.48H231.741V490.04C231.741 493.448 233.829 497 237.189 498.536L235.845 500.456C232.101 498.776 229.773 494.504 229.773 490.04V488.48ZM224.541 486.752H236.397V488.768H224.541V486.752ZM229.245 483.512H231.765V487.832H229.245V483.512ZM261.571 483.032H264.091V505.016H261.571V483.032ZM247.219 497.744H249.091C252.859 497.744 256.051 497.6 259.747 496.976L260.011 499.016C256.219 499.664 252.955 499.808 249.091 499.808H247.219V497.744ZM247.171 485H257.395V493.136H249.763V498.512H247.219V491.12H254.851V487.04H247.171V485ZM269.801 507.776L268.073 507.032C270.113 503.576 271.097 499.52 271.097 495.512C271.097 491.504 270.113 487.448 268.073 483.992L269.801 483.224C272.033 486.872 273.353 490.76 273.353 495.512C273.353 500.264 272.033 504.152 269.801 507.776Z" fill="#313131"/>
<path d="M8.99183 42V19.788H1.46783V15.36H21.8438V19.788H14.3198V42H8.99183ZM35.483 42.504C28.391 42.504 23.567 37.248 23.567 28.572C23.567 19.896 28.391 14.892 35.483 14.892C42.539 14.892 47.363 19.932 47.363 28.572C47.363 37.248 42.539 42.504 35.483 42.504ZM35.483 37.896C39.443 37.896 41.963 34.26 41.963 28.572C41.963 22.884 39.443 19.464 35.483 19.464C31.487 19.464 29.003 22.884 29.003 28.572C29.003 34.26 31.487 37.896 35.483 37.896ZM63.4382 42.504C56.7062 42.504 51.2702 37.68 51.2702 28.788C51.2702 20.004 56.8862 14.892 63.6542 14.892C67.0382 14.892 69.7382 16.476 71.4662 18.276L68.6582 21.696C67.2902 20.364 65.7782 19.464 63.7262 19.464C59.7302 19.464 56.7062 22.92 56.7062 28.608C56.7062 34.44 59.4062 37.896 63.6542 37.896C65.9222 37.896 67.7222 36.816 69.1262 35.268L71.9342 38.616C69.7382 41.172 66.8942 42.504 63.4382 42.504ZM105.731 11.832H110.519V45.276H105.731V11.832ZM99.8634 24.648H106.811V28.5H99.8634V24.648ZM90.2514 20.508H93.9954V22.236C93.9954 29.256 90.9714 36.348 84.9234 39.048L82.3674 35.376C87.7674 32.892 90.2514 27.24 90.2514 22.236V20.508ZM91.2954 20.508H95.0034V22.236C95.0034 27.024 97.5594 32.424 102.959 34.836L100.439 38.472C94.3194 35.88 91.2954 29.04 91.2954 22.236V20.508ZM83.4834 17.304H101.663V21.084H83.4834V17.304ZM90.2514 12.624H95.0394V19.248H90.2514V12.624ZM138.633 11.832H143.421V45.276H138.633V11.832ZM117.465 33.612H120.417C126.321 33.612 131.037 33.396 136.329 32.496L136.797 36.348C131.397 37.32 126.501 37.5 120.417 37.5H117.465V33.612ZM117.429 14.676H133.161V27.564H122.325V35.052H117.465V23.784H128.265V18.492H117.429V14.676ZM155.982 32.316H160.734V40.704H155.982V32.316ZM166.926 32.316H171.642V40.704H166.926V32.316ZM150.078 16.044H177.582V19.86H150.078V16.044ZM148.818 38.076H178.986V41.928H148.818V38.076ZM163.794 21.228C170.778 21.228 175.098 23.604 175.098 27.672C175.098 31.704 170.778 34.044 163.794 34.044C156.81 34.044 152.49 31.704 152.49 27.672C152.49 23.604 156.81 21.228 163.794 21.228ZM163.794 24.9C159.582 24.9 157.386 25.8 157.386 27.672C157.386 29.508 159.582 30.372 163.794 30.372C167.97 30.372 170.202 29.508 170.202 27.672C170.202 25.8 167.97 24.9 163.794 24.9ZM161.454 12.228H166.206V18.42H161.454V12.228ZM189.423 26.628H194.175V33.036H189.423V26.628ZM199.827 26.628H204.579V33.036H199.827V26.628ZM196.983 12.192C204.579 12.192 209.043 14.172 209.043 17.844C209.043 21.516 204.579 23.532 196.983 23.532C189.351 23.532 184.923 21.516 184.923 17.844C184.923 14.172 189.351 12.192 196.983 12.192ZM196.983 15.684C192.159 15.684 189.891 16.368 189.891 17.844C189.891 19.392 192.159 20.04 196.983 20.04C201.807 20.04 204.075 19.392 204.075 17.844C204.075 16.368 201.807 15.684 196.983 15.684ZM181.899 24.864H212.031V28.608H181.899V24.864ZM185.355 30.912H208.395V39.48H190.107V42.432H185.391V36.168H203.679V34.476H185.355V30.912ZM185.391 41.388H209.259V44.988H185.391V41.388Z" fill="black"/>
</svg>
