<svg width="388" height="510" viewBox="0 0 388 510" fill="none" xmlns="http://www.w3.org/2000/svg">
<path d="M31.912 90.712V88.36L37.312 86.416L40.936 85.096V85L37.312 83.656L31.912 81.736V79.384L43.768 84.016V86.08L31.912 90.712ZM56.5101 94.336C53.7261 94.336 51.9741 93.208 50.7021 91.96L52.0461 90.16C53.0301 91.168 54.3261 92.056 56.1741 92.056C58.1661 92.056 59.6541 90.736 59.6541 88.528C59.6541 86.368 58.3101 85.096 56.2941 85.096C55.1901 85.096 54.5181 85.432 53.4861 86.104L52.1181 85.216L52.6461 76.816H61.6221V79.168H55.0701L54.6621 83.68C55.4061 83.296 56.1261 83.08 57.0861 83.08C60.0381 83.08 62.4621 84.76 62.4621 88.456C62.4621 92.2 59.5821 94.336 56.5101 94.336ZM70.6056 94.336C67.0776 94.336 64.8936 91.144 64.8936 85.36C64.8936 79.552 67.0776 76.504 70.6056 76.504C74.1096 76.504 76.3176 79.576 76.3176 85.36C76.3176 91.144 74.1096 94.336 70.6056 94.336ZM70.6056 92.128C72.4056 92.128 73.6536 90.28 73.6536 85.36C73.6536 80.416 72.4056 78.688 70.6056 78.688C68.8056 78.688 67.5336 80.416 67.5336 85.36C67.5336 90.28 68.8056 92.128 70.6056 92.128ZM82.4451 87.184C79.9731 87.184 78.2931 85.12 78.2931 81.568C78.2931 78.04 79.9731 76.024 82.4451 76.024C84.9171 76.024 86.5971 78.04 86.5971 81.568C86.5971 85.12 84.9171 87.184 82.4451 87.184ZM82.4451 85.552C83.6691 85.552 84.5571 84.28 84.5571 81.568C84.5571 78.856 83.6691 77.632 82.4451 77.632C81.1971 77.632 80.3091 78.856 80.3091 81.568C80.3091 84.28 81.1971 85.552 82.4451 85.552ZM82.9731 94.336L92.6691 76.024H94.4211L84.7251 94.336H82.9731ZM94.9971 94.336C92.5251 94.336 90.8451 92.296 90.8451 88.72C90.8451 85.192 92.5251 83.152 94.9971 83.152C97.4451 83.152 99.1251 85.192 99.1251 88.72C99.1251 92.296 97.4451 94.336 94.9971 94.336ZM94.9971 92.704C96.2211 92.704 97.1091 91.432 97.1091 88.72C97.1091 85.984 96.2211 84.808 94.9971 84.808C93.7491 84.808 92.8611 85.984 92.8611 88.72C92.8611 91.432 93.7491 92.704 94.9971 92.704ZM107.695 94V76.336H118.159V78.688H110.503V83.584H116.959V85.96H110.503V91.648H118.423V94H107.695ZM122.085 94V76.336H132.573V78.688H124.893V84.064H131.421V86.416H124.893V94H122.085Z" fill="black"/>
<path d="M162.768 316.712L150.912 312.08V310.016L162.768 305.384V307.736L157.368 309.656L153.72 311V311.096L157.368 312.416L162.768 314.36V316.712ZM171.118 320V317.72H175.006V305.936H171.814V304.184C173.494 303.872 174.646 303.44 175.678 302.816H177.766V317.72H181.222V320H171.118ZM189.606 320.336C186.078 320.336 183.894 317.144 183.894 311.36C183.894 305.552 186.078 302.504 189.606 302.504C193.11 302.504 195.318 305.576 195.318 311.36C195.318 317.144 193.11 320.336 189.606 320.336ZM189.606 318.128C191.406 318.128 192.654 316.28 192.654 311.36C192.654 306.416 191.406 304.688 189.606 304.688C187.806 304.688 186.534 306.416 186.534 311.36C186.534 316.28 187.806 318.128 189.606 318.128ZM201.445 313.184C198.973 313.184 197.293 311.12 197.293 307.568C197.293 304.04 198.973 302.024 201.445 302.024C203.917 302.024 205.597 304.04 205.597 307.568C205.597 311.12 203.917 313.184 201.445 313.184ZM201.445 311.552C202.669 311.552 203.557 310.28 203.557 307.568C203.557 304.856 202.669 303.632 201.445 303.632C200.197 303.632 199.309 304.856 199.309 307.568C199.309 310.28 200.197 311.552 201.445 311.552ZM201.973 320.336L211.669 302.024H213.421L203.725 320.336H201.973ZM213.997 320.336C211.525 320.336 209.845 318.296 209.845 314.72C209.845 311.192 211.525 309.152 213.997 309.152C216.445 309.152 218.125 311.192 218.125 314.72C218.125 318.296 216.445 320.336 213.997 320.336ZM213.997 318.704C215.221 318.704 216.109 317.432 216.109 314.72C216.109 311.984 215.221 310.808 213.997 310.808C212.749 310.808 211.861 311.984 211.861 314.72C211.861 317.432 212.749 318.704 213.997 318.704ZM226.695 320V302.336H232.191C235.791 302.336 238.407 303.488 238.407 306.68C238.407 308.384 237.495 309.968 235.911 310.52V310.616C237.927 311.048 239.367 312.44 239.367 314.816C239.367 318.32 236.535 320 232.623 320H226.695ZM229.503 309.704H231.879C234.567 309.704 235.671 308.696 235.671 307.064C235.671 305.216 234.423 304.52 231.951 304.52H229.503V309.704ZM229.503 317.816H232.311C235.047 317.816 236.631 316.832 236.631 314.696C236.631 312.704 235.119 311.816 232.311 311.816H229.503V317.816ZM242.702 320V302.336H248.198C251.798 302.336 254.414 303.488 254.414 306.68C254.414 308.384 253.502 309.968 251.918 310.52V310.616C253.934 311.048 255.374 312.44 255.374 314.816C255.374 318.32 252.542 320 248.63 320H242.702ZM245.51 309.704H247.886C250.574 309.704 251.678 308.696 251.678 307.064C251.678 305.216 250.43 304.52 247.958 304.52H245.51V309.704ZM245.51 317.816H248.318C251.054 317.816 252.638 316.832 252.638 314.696C252.638 312.704 251.126 311.816 248.318 311.816H245.51V317.816ZM258.71 320V302.336H263.318C268.742 302.336 271.814 305.336 271.814 311.096C271.814 316.856 268.742 320 263.462 320H258.71ZM261.518 317.72H263.102C266.894 317.72 268.958 315.488 268.958 311.096C268.958 306.704 266.894 304.592 263.102 304.592H261.518V317.72Z" fill="black"/>
<path d="M279.768 367.712L267.912 363.08V361.016L279.768 356.384V358.736L274.368 360.656L270.72 362V362.096L274.368 363.416L279.768 365.36V367.712ZM292.486 371.336C289.726 371.336 287.926 370.232 286.726 368.888L288.094 367.112C289.126 368.168 290.422 369.056 292.27 369.056C294.238 369.056 295.606 368 295.606 366.248C295.606 364.376 294.358 363.152 290.398 363.152V361.088C293.854 361.088 295.006 359.816 295.006 358.16C295.006 356.648 293.998 355.712 292.294 355.712C290.95 355.712 289.798 356.384 288.79 357.392L287.326 355.664C288.742 354.392 290.374 353.504 292.414 353.504C295.582 353.504 297.814 355.112 297.814 357.968C297.814 359.936 296.638 361.256 294.766 361.976V362.072C296.806 362.6 298.414 364.088 298.414 366.392C298.414 369.512 295.75 371.336 292.486 371.336ZM304.758 364.184C302.286 364.184 300.606 362.12 300.606 358.568C300.606 355.04 302.286 353.024 304.758 353.024C307.23 353.024 308.91 355.04 308.91 358.568C308.91 362.12 307.23 364.184 304.758 364.184ZM304.758 362.552C305.982 362.552 306.87 361.28 306.87 358.568C306.87 355.856 305.982 354.632 304.758 354.632C303.51 354.632 302.622 355.856 302.622 358.568C302.622 361.28 303.51 362.552 304.758 362.552ZM305.286 371.336L314.982 353.024H316.734L307.038 371.336H305.286ZM317.31 371.336C314.838 371.336 313.158 369.296 313.158 365.72C313.158 362.192 314.838 360.152 317.31 360.152C319.758 360.152 321.438 362.192 321.438 365.72C321.438 369.296 319.758 371.336 317.31 371.336ZM317.31 369.704C318.534 369.704 319.422 368.432 319.422 365.72C319.422 362.984 318.534 361.808 317.31 361.808C316.062 361.808 315.174 362.984 315.174 365.72C315.174 368.432 316.062 369.704 317.31 369.704ZM330.007 371V353.336H334.615C340.039 353.336 343.111 356.336 343.111 362.096C343.111 367.856 340.039 371 334.759 371H330.007ZM332.815 368.72H334.399C338.191 368.72 340.255 366.488 340.255 362.096C340.255 357.704 338.191 355.592 334.399 355.592H332.815V368.72ZM351.852 371.336C349.404 371.336 347.172 370.376 345.564 368.744L347.196 366.8C348.444 368.072 350.196 368.888 351.9 368.888C354.012 368.888 355.212 367.904 355.212 366.392C355.212 364.784 354.012 364.28 352.38 363.584L349.932 362.504C348.228 361.808 346.356 360.464 346.356 357.896C346.356 355.112 348.78 353.024 352.14 353.024C354.228 353.024 356.172 353.888 357.492 355.256L356.052 357.008C354.948 356.048 353.7 355.448 352.14 355.448C350.34 355.448 349.188 356.312 349.188 357.704C349.188 359.216 350.604 359.792 352.044 360.392L354.468 361.4C356.556 362.288 358.068 363.584 358.068 366.176C358.068 369.008 355.716 371.336 351.852 371.336ZM359.086 371L364.918 353.336H368.158L373.99 371H371.038L368.206 361.424C367.606 359.504 367.078 357.512 366.526 355.544H366.43C365.902 357.536 365.374 359.504 364.774 361.424L361.918 371H359.086ZM362.374 365.984V363.8H370.63V365.984H362.374Z" fill="black"/>
<rect x="31" y="111" width="66" height="312" fill="#0156A8"/>
<rect x="150" y="337" width="66" height="86" fill="#ACACAC"/>
<rect x="267" y="388" width="66" height="35" fill="#171484"/>
<rect x="14" y="422" width="374" height="4" fill="black"/>
<path d="M155.603 447.912H158.771V470.136H155.603V447.912ZM158.051 456.576H161.987V459.24H158.051V456.576ZM141.251 451.2H154.187V453.744H141.251V451.2ZM147.755 454.992C150.995 454.992 153.395 457.2 153.395 460.296C153.395 463.392 150.995 465.6 147.755 465.6C144.515 465.6 142.115 463.392 142.115 460.296C142.115 457.2 144.515 454.992 147.755 454.992ZM147.755 457.584C146.243 457.584 145.163 458.592 145.163 460.296C145.163 462 146.243 463.008 147.755 463.008C149.267 463.008 150.347 462 150.347 460.296C150.347 458.592 149.267 457.584 147.755 457.584ZM146.147 448.272H149.339V452.16H146.147V448.272ZM168.417 452.256H171.009V453.12C171.009 457.176 169.041 460.8 164.817 462.12L163.281 459.624C166.881 458.496 168.417 455.808 168.417 453.12V452.256ZM168.993 452.256H171.609V453.12C171.609 455.616 173.169 458.184 176.769 459.264L175.233 461.76C171.033 460.512 168.993 457.008 168.993 453.12V452.256ZM164.049 450.528H175.977V453.024H164.049V450.528ZM168.417 448.08H171.609V451.464H168.417V448.08ZM175.281 454.368H180.441V456.984H175.281V454.368ZM178.833 447.936H182.025V464.376H178.833V447.936ZM167.361 467.208H182.529V469.752H167.361V467.208ZM167.361 463.008H170.553V468.888H167.361V463.008ZM193.879 448.56H196.687V449.592C196.687 453.864 193.327 457.488 187.495 458.352L186.247 455.784C191.359 455.112 193.879 452.208 193.879 449.592V448.56ZM194.479 448.56H197.263V449.592C197.263 452.184 199.807 455.112 204.895 455.784L203.671 458.352C197.839 457.488 194.479 453.864 194.479 449.592V448.56ZM193.903 462H197.071V470.136H193.903V462ZM185.527 459.984H205.615V462.576H185.527V459.984ZM213.211 462.408V459.888H219.787V462.408H213.211ZM233.003 468.336C230.195 468.336 228.323 467.232 226.979 465.912L228.635 463.68C229.619 464.664 230.891 465.48 232.523 465.48C234.395 465.48 235.667 464.304 235.667 462.192C235.667 460.128 234.467 458.976 232.691 458.976C231.635 458.976 231.059 459.24 230.027 459.912L228.395 458.856L228.899 450.24H238.403V453.192H231.947L231.611 456.96C232.307 456.648 232.931 456.48 233.747 456.48C236.723 456.48 239.219 458.232 239.219 462.12C239.219 466.056 236.267 468.336 233.003 468.336ZM241.495 459.288H261.607V461.808H241.495V459.288ZM250.207 460.632H253.423V465.312H250.207V460.632ZM243.823 467.208H259.399V469.752H243.823V467.208ZM243.823 463.632H246.991V468.288H243.823V463.632ZM244.063 448.608H247.207V450.888H255.871V448.608H259.039V457.752H244.063V448.608ZM247.207 453.288V455.256H255.871V453.288H247.207Z" fill="black"/>
<path d="M82.8521 507.776C80.5961 504.152 79.2761 500.264 79.2761 495.512C79.2761 490.76 80.5961 486.872 82.8521 483.224L84.5561 483.992C82.5161 487.448 81.5561 491.504 81.5561 495.512C81.5561 499.52 82.5161 503.576 84.5561 507.032L82.8521 507.776ZM91.9828 484.4H94.0708V486.944C94.0708 491.264 91.8628 494.84 87.9508 496.256L86.6068 494.288C90.1108 493.088 91.9828 490.16 91.9828 486.944V484.4ZM92.4628 484.4H94.5028V486.992C94.5028 489.872 96.3988 492.656 99.7348 493.808L98.4628 495.776C94.6468 494.456 92.4628 490.976 92.4628 486.992V484.4ZM101.415 483.056H103.935V499.184H101.415V483.056ZM103.191 489.608H107.031V491.696H103.191V489.608ZM90.0868 502.52H104.823V504.56H90.0868V502.52ZM90.0868 497.648H92.6308V503.552H90.0868V497.648ZM114.301 496.088H116.821V499.64H114.301V496.088ZM123.517 483.056H126.037V504.992H123.517V483.056ZM125.197 492.2H129.157V494.288H125.197V492.2ZM108.973 501.056L108.637 498.992C112.501 498.992 117.805 498.968 122.293 498.32L122.485 500.168C117.805 501.032 112.741 501.056 108.973 501.056ZM109.021 485.6H122.053V487.592H109.021V485.6ZM115.549 488.696C118.645 488.696 120.805 490.328 120.805 492.776C120.805 495.248 118.645 496.856 115.549 496.856C112.453 496.856 110.317 495.248 110.317 492.776C110.317 490.328 112.453 488.696 115.549 488.696ZM115.549 490.616C113.821 490.616 112.693 491.456 112.693 492.776C112.693 494.12 113.821 494.936 115.549 494.936C117.277 494.936 118.429 494.12 118.429 492.776C118.429 491.456 117.277 490.616 115.549 490.616ZM114.301 483.128H116.821V487.016H114.301V483.128ZM131.843 493.736H133.451C137.675 493.736 139.811 493.664 142.355 493.208L142.619 495.224C139.979 495.704 137.771 495.776 133.451 495.776H131.843V493.736ZM131.795 484.352H141.323V490.88H134.339V495.032H131.843V488.96H138.851V486.368H131.795V484.352ZM146.627 483.08H149.147V496.568H146.627V483.08ZM142.691 486.224H147.131V488.24H142.691V486.224ZM142.691 490.808H147.131V492.848H142.691V490.808ZM134.315 497.672H149.147V505.016H146.627V499.688H134.315V497.672ZM173.016 483.056H175.56V498.944H173.016V483.056ZM174.816 489.464H178.656V491.552H174.816V489.464ZM166.992 484.736H169.656C169.656 490.52 165.84 494.672 159.432 496.616L158.376 494.6C163.824 492.992 166.992 489.8 166.992 485.912V484.736ZM159.288 484.736H168.312V486.776H159.288V484.736ZM161.664 502.52H176.424V504.56H161.664V502.52ZM161.664 497.336H164.184V503.384H161.664V497.336ZM192.286 488.192H196.846V490.232H192.286V488.192ZM196.174 483.056H198.67V495.008H196.174V483.056ZM184.414 495.992H186.91V498.368H196.198V495.992H198.67V504.728H184.414V495.992ZM186.91 500.336V502.688H196.198V500.336H186.91ZM185.878 484.76H187.918V486.392C187.918 490.424 185.686 494.024 181.774 495.392L180.502 493.4C183.91 492.224 185.878 489.344 185.878 486.392V484.76ZM186.382 484.76H188.398V486.368C188.398 489.08 190.27 491.816 193.558 492.944L192.31 494.912C188.518 493.592 186.382 490.16 186.382 486.368V484.76ZM181.222 484.232H192.982V486.248H181.222V484.232ZM208.172 486.344H210.188V489.416C210.188 494.24 207.716 499.016 203.948 500.816L202.508 498.824C205.892 497.264 208.172 493.16 208.172 489.416V486.344ZM208.7 486.344H210.692V489.416C210.692 493.04 212.948 496.832 216.38 498.272L214.988 500.264C211.172 498.56 208.7 494.12 208.7 489.416V486.344ZM203.3 485.24H215.564V487.328H203.3V485.24ZM218.132 483.056H220.652V504.992H218.132V483.056ZM229.89 494.96H232.41V501.056H229.89V494.96ZM236.706 494.984H239.202V501.08H236.706V494.984ZM224.682 500.384H244.554V502.448H224.682V500.384ZM226.314 484.952H242.778V486.992H226.314V484.952ZM226.386 493.664H242.73V495.68H226.386V493.664ZM229.53 486.608H232.05V494.024H229.53V486.608ZM237.066 486.608H239.562V494.024H237.066V486.608ZM256.831 490.448H259.327V494.528H256.831V490.448ZM264.727 490.448H267.223V494.528H264.727V490.448ZM252.127 493.712H271.951V495.704H252.127V493.712ZM262.015 497.12C266.719 497.12 269.575 498.536 269.575 501.032C269.575 503.552 266.719 504.968 262.015 504.968C257.287 504.968 254.455 503.552 254.455 501.032C254.455 498.536 257.287 497.12 262.015 497.12ZM262.015 499.04C258.799 499.04 256.999 499.736 256.999 501.032C256.999 502.352 258.799 503.048 262.015 503.048C265.231 503.048 267.031 502.352 267.031 501.032C267.031 499.736 265.231 499.04 262.015 499.04ZM262.039 483.416C266.839 483.416 269.863 484.976 269.863 487.568C269.863 490.16 266.839 491.672 262.039 491.672C257.239 491.672 254.239 490.16 254.239 487.568C254.239 484.976 257.239 483.416 262.039 483.416ZM262.039 485.36C258.775 485.36 256.831 486.128 256.831 487.568C256.831 488.984 258.775 489.752 262.039 489.752C265.327 489.752 267.271 488.984 267.271 487.568C267.271 486.128 265.327 485.36 262.039 485.36ZM282.437 485.24H284.669V485.84C284.669 489.464 281.165 492.224 276.197 492.896L275.261 490.88C279.533 490.376 282.437 488.192 282.437 485.84V485.24ZM283.589 485.24H285.797V485.84C285.797 488.192 288.725 490.376 292.997 490.88L292.061 492.896C287.093 492.224 283.589 489.464 283.589 485.84V485.24ZM276.029 484.064H292.253V486.08H276.029V484.064ZM276.701 502.52H291.821V504.56H276.701V502.52ZM276.701 498.32H279.221V503.288H276.701V498.32ZM274.205 494.72H294.077V496.736H274.205V494.72ZM282.845 491.36H285.341V495.536H282.845V491.36ZM301.635 484.256H303.723V486.368C303.723 490.688 301.515 494.336 297.507 495.752L296.187 493.712C299.715 492.536 301.635 489.584 301.635 486.368V484.256ZM302.115 484.256H304.155V486.272C304.155 489.296 305.979 492.032 309.315 493.136L307.971 495.104C304.203 493.736 302.115 490.376 302.115 486.272V484.256ZM311.955 483.056H314.475V495.968H311.955V483.056ZM307.155 496.592C311.739 496.592 314.547 498.128 314.547 500.768C314.547 503.432 311.739 504.968 307.155 504.968C302.571 504.968 299.763 503.432 299.763 500.768C299.763 498.128 302.571 496.592 307.155 496.592ZM307.155 498.56C304.059 498.56 302.259 499.352 302.259 500.768C302.259 502.208 304.059 503 307.155 503C310.275 503 312.051 502.208 312.051 500.768C312.051 499.352 310.275 498.56 307.155 498.56ZM307.515 487.4H312.387V489.464H307.515V487.4ZM320.113 507.776L318.385 507.032C320.425 503.576 321.409 499.52 321.409 495.512C321.409 491.504 320.425 487.448 318.385 483.992L320.113 483.224C322.345 486.872 323.665 490.76 323.665 495.512C323.665 500.264 322.345 504.152 320.113 507.776Z" fill="#313131"/>
<path d="M3.44983 42V15.36H10.7578C18.8938 15.36 23.8978 19.572 23.8978 28.572C23.8978 37.536 18.8938 42 11.0458 42H3.44983ZM8.77783 37.716H10.3978C15.4018 37.716 18.4618 35.052 18.4618 28.572C18.4618 22.092 15.4018 19.608 10.3978 19.608H8.77783V37.716ZM39.733 42.504C32.641 42.504 27.817 37.248 27.817 28.572C27.817 19.896 32.641 14.892 39.733 14.892C46.789 14.892 51.613 19.932 51.613 28.572C51.613 37.248 46.789 42.504 39.733 42.504ZM39.733 37.896C43.693 37.896 46.213 34.26 46.213 28.572C46.213 22.884 43.693 19.464 39.733 19.464C35.737 19.464 33.253 22.884 33.253 28.572C33.253 34.26 35.737 37.896 39.733 37.896ZM67.6882 42.504C60.9562 42.504 55.5202 37.68 55.5202 28.788C55.5202 20.004 61.1362 14.892 67.9042 14.892C71.2882 14.892 73.9882 16.476 75.7162 18.276L72.9082 21.696C71.5402 20.364 70.0282 19.464 67.9762 19.464C63.9802 19.464 60.9562 22.92 60.9562 28.608C60.9562 34.44 63.6562 37.896 67.9042 37.896C70.1722 37.896 71.9722 36.816 73.3762 35.268L76.1842 38.616C73.9882 41.172 71.1442 42.504 67.6882 42.504ZM109.981 11.832H114.769V45.276H109.981V11.832ZM104.113 24.648H111.061V28.5H104.113V24.648ZM94.5014 20.508H98.2454V22.236C98.2454 29.256 95.2214 36.348 89.1734 39.048L86.6174 35.376C92.0174 32.892 94.5014 27.24 94.5014 22.236V20.508ZM95.5454 20.508H99.2534V22.236C99.2534 27.024 101.809 32.424 107.209 34.836L104.689 38.472C98.5694 35.88 95.5454 29.04 95.5454 22.236V20.508ZM87.7334 17.304H105.913V21.084H87.7334V17.304ZM94.5014 12.624H99.2894V19.248H94.5014V12.624ZM142.883 11.832H147.671V45.276H142.883V11.832ZM121.715 33.612H124.667C130.571 33.612 135.287 33.396 140.579 32.496L141.047 36.348C135.647 37.32 130.751 37.5 124.667 37.5H121.715V33.612ZM121.679 14.676H137.411V27.564H126.575V35.052H121.715V23.784H132.515V18.492H121.679V14.676ZM160.232 32.316H164.984V40.704H160.232V32.316ZM171.176 32.316H175.892V40.704H171.176V32.316ZM154.328 16.044H181.832V19.86H154.328V16.044ZM153.068 38.076H183.236V41.928H153.068V38.076ZM168.044 21.228C175.028 21.228 179.348 23.604 179.348 27.672C179.348 31.704 175.028 34.044 168.044 34.044C161.06 34.044 156.74 31.704 156.74 27.672C156.74 23.604 161.06 21.228 168.044 21.228ZM168.044 24.9C163.832 24.9 161.636 25.8 161.636 27.672C161.636 29.508 163.832 30.372 168.044 30.372C172.22 30.372 174.452 29.508 174.452 27.672C174.452 25.8 172.22 24.9 168.044 24.9ZM165.704 12.228H170.456V18.42H165.704V12.228ZM193.673 26.628H198.425V33.036H193.673V26.628ZM204.077 26.628H208.829V33.036H204.077V26.628ZM201.233 12.192C208.829 12.192 213.293 14.172 213.293 17.844C213.293 21.516 208.829 23.532 201.233 23.532C193.601 23.532 189.173 21.516 189.173 17.844C189.173 14.172 193.601 12.192 201.233 12.192ZM201.233 15.684C196.409 15.684 194.141 16.368 194.141 17.844C194.141 19.392 196.409 20.04 201.233 20.04C206.057 20.04 208.325 19.392 208.325 17.844C208.325 16.368 206.057 15.684 201.233 15.684ZM186.149 24.864H216.281V28.608H186.149V24.864ZM189.605 30.912H212.645V39.48H194.357V42.432H189.641V36.168H207.929V34.476H189.605V30.912ZM189.641 41.388H213.509V44.988H189.641V41.388Z" fill="black"/>
</svg>
