<svg width="61" height="60" viewBox="0 0 61 60" fill="none" xmlns="http://www.w3.org/2000/svg">
<path d="M37.0607 31.0607C37.6464 30.4749 37.6464 29.5251 37.0607 28.9393L27.5147 19.3934C26.9289 18.8076 25.9792 18.8076 25.3934 19.3934C24.8076 19.9792 24.8076 20.9289 25.3934 21.5147L33.8787 30L25.3934 38.4853C24.8076 39.0711 24.8076 40.0208 25.3934 40.6066C25.9792 41.1924 26.9289 41.1924 27.5147 40.6066L37.0607 31.0607ZM35 31.5L36 31.5L36 28.5L35 28.5L35 31.5Z" fill="white"/>
<path d="M30.5 59.5C46.7924 59.5 60 46.2924 60 30C60 13.7076 46.7924 0.5 30.5 0.5C14.2076 0.5 1 13.7076 1 30C1 46.2924 14.2076 59.5 30.5 59.5Z" stroke="white"/>
</svg>
